<svg xmlns="http://www.w3.org/2000/svg" width="800" height="60" version="1.1">
    <rect width="100%" height="100%" fill="white"/>
    <line x1="10" x2="800" y1="25" y2="25" stroke-width="1" stroke="black"/>

    <!-- Iniciativa -->
    <circle cx="50" cy="25" r="6" stroke-width="1" stroke="black" fill="white" />
    <text fill="black"  font-size="12" x="15" y="44">Iniciativa</text>

    <!-- Hlaseni akce -->
    <circle cx="150" cy="25" r="6" stroke-width="1" stroke="black" fill="white" />
    <text fill="black"  font-size="12" x="110" y="44">Hlášení akce</text>

    <!-- Rozsahle -->
    <rect x="170" y="-150" width="15" height="15" stroke="black" fill="white" stroke-width="1" transform="rotate(45)"/>
    <text fill="black"  font-size="12" x="200" y="10">Rozsáhle</text>

    <!-- Obrana -->
    <rect x="210" y="-190" width="15" height="15" stroke="black" fill="white" stroke-width="1" transform="rotate(45)"/>
    <text fill="black"  font-size="12" x="265" y="50">Obrana</text>

    <!-- Presne -->
    <rect x="260" y="-240" width="15" height="15" stroke="black" fill="white" stroke-width="1" transform="rotate(45)"/>
    <circle cx="395" cy="25" r="6" stroke-width="1" stroke="black" fill="white" />
    <rect x="315" y="-295" width="15" height="15" stroke="black" fill="black" stroke-width="1" transform="rotate(45)"/>
    <text fill="black"  font-size="12" x="370" y="10">Přesně</text>
    <text fill="black"  font-size="12" x="360" y="50">Hod kostkou</text>

    <!-- Mocne -->
    <rect x="370" y="-350" width="15" height="15" stroke="black" fill="white" stroke-width="1" transform="rotate(45)"/>
    <rect x="390" y="-370" width="15" height="15" stroke="black" fill="black" stroke-width="1" transform="rotate(45)"/>
    <text fill="black"  font-size="12" x="500" y="10">Mocně</text>

    <!-- Vycerpani -->
    <circle cx="620" cy="25" r="6" stroke-width="1" stroke="black" fill="white" />
    <text fill="black"  font-size="12" x="590" y="50">Vyčerpání</text>

    <!-- Lstive -->
    <rect x="490" y="-470" width="15" height="15" stroke="black" fill="white" stroke-width="1" transform="rotate(45)"/>
    <rect x="510" y="-490" width="15" height="15" stroke="black" fill="black" stroke-width="1" transform="rotate(45)"/>
    <text fill="black"  font-size="12" x="670" y="10">Lstivě</text>
    <style type="text/css"><![CDATA[
      text {
        font-family: 'Metamorphous', cursive;
      }
    ]]></style>
</svg>